<svg id="visual" viewBox="0 0 900 600" width="900" height="600" xmlns="http://www.w3.org/2000/svg" xmlns:xlink="http://www.w3.org/1999/xlink" version="1.1"><path d="M0 133L25 148C50 163 100 193 150 214C200 235 250 247 300 256C350 265 400 271 450 230C500 189 550 101 600 85C650 69 700 125 750 139C800 153 850 125 875 111L900 97L900 0L875 0C850 0 800 0 750 0C700 0 650 0 600 0C550 0 500 0 450 0C400 0 350 0 300 0C250 0 200 0 150 0C100 0 50 0 25 0L0 0Z" fill="#eeeeee"></path><path d="M0 523L25 488C50 453 100 383 150 395C200 407 250 501 300 524C350 547 400 499 450 434C500 369 550 287 600 266C650 245 700 285 750 286C800 287 850 249 875 230L900 211L900 95L875 109C850 123 800 151 750 137C700 123 650 67 600 83C550 99 500 187 450 228C400 269 350 263 300 254C250 245 200 233 150 212C100 191 50 161 25 146L0 131Z" fill="#ffffff"></path><path d="M0 601L25 601C50 601 100 601 150 601C200 601 250 601 300 601C350 601 400 601 450 601C500 601 550 601 600 601C650 601 700 601 750 601C800 601 850 601 875 601L900 601L900 209L875 228C850 247 800 285 750 284C700 283 650 243 600 264C550 285 500 367 450 432C400 497 350 545 300 522C250 499 200 405 150 393C100 381 50 451 25 486L0 521Z" fill="#eeeeee"></path></svg>